<?xml version="1.0" standalone="no"?>
<!DOCTYPE svg PUBLIC "-//W3C//DTD SVG 20010904//EN"
 "http://www.w3.org/TR/2001/REC-SVG-20010904/DTD/svg10.dtd">
<svg version="1.0" xmlns="http://www.w3.org/2000/svg"
 width="1024.000000pt" height="1024.000000pt" viewBox="0 0 1024.000000 1024.000000"
 preserveAspectRatio="xMidYMid meet">

<g transform="translate(0.000000,1024.000000) scale(0.100000,-0.100000)"
fill="#000000" stroke="none">
<path d="M0 5120 l0 -5120 5120 0 5120 0 0 5120 0 5120 -5120 0 -5120 0 0
-5120z m3965 2743 c61 -31 115 -97 115 -143 0 -20 -3 -20 -462 -20 -508 0
-573 -5 -644 -54 l-39 -26 -7 32 c-22 98 41 193 152 229 14 5 212 6 440 3 340
-5 420 -9 445 -21z m3318 1 c53 -28 88 -57 104 -87 l14 -29 -28 22 c-16 11
-54 26 -84 33 -55 12 -183 12 -175 -1 9 -16 -341 -14 -486 3 -153 17 -202 13
-256 -21 l-23 -15 16 31 c9 17 37 45 63 62 l47 30 388 -6 c335 -5 392 -8 420
-22z m-536 -150 c-3 -3 -12 -4 -19 -1 -8 3 -5 6 6 6 11 1 17 -2 13 -5z m360 0
c-3 -3 -12 -4 -19 -1 -8 3 -5 6 6 6 11 1 17 -2 13 -5z m158 -155 c194 -41 295
-80 455 -177 204 -123 395 -332 494 -543 85 -179 119 -311 135 -524 13 -169
16 -1965 3 -2025 -5 -25 -10 -37 -11 -28 0 9 -14 26 -31 38 -26 19 -36 20 -95
12 -36 -5 -65 -5 -65 0 0 4 -6 8 -13 8 -15 0 -42 -60 -52 -115 -8 -47 -23 -77
-90 -175 -27 -40 -59 -87 -71 -104 -59 -86 -162 -166 -296 -231 -88 -43 -106
-48 -200 -56 -241 -20 -333 -10 -462 47 -150 67 -326 225 -440 397 -116 174
-210 424 -219 580 -2 42 -2 76 0 73 2 -2 17 -53 33 -112 38 -146 69 -227 141
-364 78 -148 127 -215 236 -322 109 -109 169 -154 264 -200 272 -133 648 -63
861 160 77 80 170 225 202 313 59 165 58 134 62 1134 5 814 3 925 -10 964 -9
24 -16 73 -16 108 0 56 -2 64 -17 61 -10 -2 -19 -12 -21 -23 -10 -67 -8 -66
-67 -59 -38 5 -55 3 -55 -5 0 -6 -15 -11 -35 -11 -45 0 -58 22 -75 120 -16 94
-78 244 -130 316 -58 78 -281 269 -362 310 -197 100 -463 119 -667 50 -198
-68 -384 -220 -489 -401 -43 -74 -95 -227 -106 -309 -7 -58 -1 -56 17 5 12 41
13 35 9 -71 -10 -304 107 -522 397 -740 109 -82 292 -140 444 -140 155 0 323
48 447 129 82 54 204 175 251 249 84 132 138 272 154 400 6 42 11 52 24 50 23
-4 26 -85 7 -177 -26 -123 -150 -355 -222 -416 -7 -5 -14 -19 -16 -30 -2 -11
-11 -19 -20 -19 -10 1 -14 -4 -11 -12 3 -9 -2 -14 -15 -14 -12 0 -24 -5 -28
-12 -5 -7 -3 -8 7 -3 8 5 5 -1 -5 -13 -11 -12 -26 -21 -35 -20 -9 2 -15 -3
-13 -10 1 -8 -1 -11 -6 -8 -5 3 -27 -8 -48 -23 -80 -59 -246 -117 -385 -136
-114 -15 -325 32 -478 106 -87 42 -118 63 -189 132 -46 45 -105 109 -132 142
-47 59 -117 182 -137 240 -8 24 -10 11 -6 -59 3 -71 10 -103 34 -154 16 -36
29 -71 29 -79 0 -8 14 -32 32 -54 59 -73 37 -68 -55 12 -104 89 -174 123 -291
140 -100 15 -163 1 -262 -59 -55 -33 -95 -67 -134 -114 -58 -71 -117 -164 -87
-139 16 12 16 10 1 -30 -56 -156 -5 -371 120 -515 70 -80 199 -134 319 -134
194 0 350 100 434 275 54 115 63 222 27 355 -3 14 6 3 20 -25 21 -38 29 -70
33 -131 10 -144 -35 -268 -136 -372 -126 -129 -318 -182 -494 -136 -180 46
-299 163 -364 358 -14 43 -21 55 -16 31 4 -22 6 -59 5 -83 -1 -24 1 -41 5 -39
5 3 6 -15 4 -39 -3 -40 -7 -46 -40 -61 -20 -9 -39 -22 -43 -27 -4 -6 -8 3 -9
19 -1 18 -3 23 -6 12 -4 -17 -6 -17 -22 2 -10 11 -20 19 -22 17 -8 -8 -3 170
5 188 6 12 5 21 -3 26 -8 5 -10 19 -6 44 5 22 3 36 -3 36 -5 0 -13 -26 -17
-57 -9 -71 -46 -172 -86 -235 -52 -80 -151 -151 -269 -190 l-74 -25 67 -5 c61
-5 70 -9 100 -42 19 -20 40 -36 48 -36 8 0 23 -6 34 -14 16 -11 90 -15 340
-19 176 -3 327 -8 336 -11 34 -14 49 -123 25 -178 -6 -13 -1 -17 21 -21 44 -6
-487 -12 -867 -8 -314 3 -393 8 -443 27 -12 4 -17 1 -17 -14 0 -90 -109 -367
-192 -487 -19 -27 -54 -79 -79 -114 -55 -80 -176 -211 -195 -211 -8 0 -13 -3
-11 -8 1 -4 -2 -8 -6 -9 -5 -1 -17 -13 -28 -28 -11 -14 -30 -30 -42 -36 -20
-9 -20 -9 -4 4 9 8 17 19 17 25 0 6 7 18 16 27 9 9 15 18 12 20 -2 2 -35 -21
-73 -51 -39 -31 -102 -71 -141 -90 -39 -18 -101 -51 -137 -72 -37 -22 -86 -44
-110 -50 -266 -66 -310 -70 -444 -43 -111 23 -237 63 -325 104 -32 15 -58 25
-58 22 0 -3 22 -19 50 -36 56 -35 67 -48 18 -23 -59 30 -157 107 -151 118 3 6
3 8 -2 4 -12 -11 -117 94 -192 192 -81 107 -146 237 -181 365 l-27 100 3 1025
c2 859 5 1047 19 1160 21 184 75 359 150 488 83 145 107 177 223 293 102 103
211 184 326 242 115 58 360 130 474 139 19 2 908 2 1975 1 1938 -2 1940 -2
2040 -24z m-220 -649 c20 -19 43 -47 51 -62 19 -36 18 -112 -2 -154 -36 -76
-132 -126 -199 -104 -54 18 -121 84 -139 137 -30 86 -15 130 62 188 46 36 49
37 119 33 67 -3 75 -6 108 -38z m-502 -371 c43 -12 101 -59 123 -100 58 -113
-50 -269 -186 -269 -85 0 -171 81 -186 175 -7 52 0 77 37 131 43 63 125 88
212 63z m946 -27 c52 -42 75 -87 74 -144 -1 -97 -92 -188 -187 -188 -92 0
-177 78 -192 175 -7 52 21 125 60 150 79 52 186 55 245 7z m-463 -401 c74 -45
110 -136 85 -214 -18 -55 -88 -123 -140 -137 -77 -20 -162 24 -200 105 -46 99
-10 209 84 251 45 20 134 18 171 -5z m-1615 -448 c-33 -45 -63 -79 -55 -63 10
21 65 90 71 90 2 0 -5 -12 -16 -27z m760 -20 c13 -16 12 -17 -3 -4 -10 7 -18
15 -18 17 0 8 8 3 21 -13z m-322 -33 c79 -22 163 -111 177 -187 10 -51 -4
-143 -21 -137 -7 3 -16 17 -20 32 l-8 27 -9 -35 c-12 -44 -37 -71 -92 -98 -57
-29 -118 -28 -182 2 -49 23 -94 74 -94 107 0 8 -7 25 -16 38 -12 16 -19 20
-27 12 -20 -20 -27 -12 -27 28 0 54 12 83 57 132 68 75 170 106 262 79z m-809
-876 c0 -2 -19 -4 -42 -3 -31 0 -37 3 -24 8 18 7 66 3 66 -5z m-2250 -1344
c11 -8 7 -9 -15 -4 -37 8 -45 14 -19 14 10 0 26 -5 34 -10z m2685 -1065 c248
-25 390 -47 440 -66 104 -39 222 -61 405 -75 213 -16 262 -22 272 -37 9 -15 0
-27 -22 -27 -10 0 -20 -6 -23 -14 -4 -9 -36 -18 -94 -25 -48 -6 -124 -16 -168
-22 -44 -6 -116 -16 -160 -24 -391 -67 -532 -85 -750 -96 -254 -14 -350 -6
-840 66 -337 50 -452 65 -570 74 -133 11 -263 33 -227 39 13 2 22 10 22 21 0
21 19 25 230 41 74 6 160 17 190 25 50 12 135 27 230 39 19 3 71 12 115 21 44
8 98 17 120 20 22 3 72 10 110 15 39 6 95 13 125 16 30 3 62 10 70 15 23 13
379 10 525 -6z"/>
<path d="M3305 7136 c-209 -60 -418 -216 -538 -402 -155 -241 -139 -603 37
-847 93 -129 217 -229 362 -292 124 -53 206 -68 344 -62 95 3 132 10 209 36
181 61 298 135 403 258 75 86 113 155 154 272 99 285 29 576 -190 797 -130
130 -274 214 -423 248 -106 24 -258 20 -358 -8z m265 -201 c53 -28 62 -60 54
-203 -4 -70 -12 -133 -18 -141 -17 -22 -87 -51 -124 -51 -24 0 -43 10 -74 39
l-42 39 -4 124 c-5 139 0 158 51 188 39 24 116 26 157 5z m-288 -452 c68 -72
63 -178 -11 -248 -31 -29 -34 -29 -159 -33 -114 -3 -130 -1 -159 17 -64 40
-93 153 -58 222 31 59 64 69 221 69 140 0 140 0 166 -27z m759 4 c74 -50 73
-175 -1 -250 l-38 -38 -119 5 c-65 3 -118 6 -118 6 0 1 -8 3 -18 5 -47 9 -97
89 -97 155 0 47 11 73 48 113 26 27 26 27 167 27 131 0 145 -2 176 -23z m-464
-348 c52 -32 63 -68 59 -188 -4 -84 -8 -105 -27 -132 -24 -34 -89 -68 -130
-69 -34 0 -87 36 -116 79 -21 31 -23 46 -23 156 0 138 -2 135 81 165 63 23
105 20 156 -11z"/>
<path d="M8057 6519 c4 -13 8 -18 11 -10 2 7 -1 18 -6 23 -8 8 -9 4 -5 -13z"/>
<path d="M5475 6506 c-49 -22 -77 -60 -82 -110 -5 -43 -3 -48 35 -86 l40 -40
88 0 c49 0 106 5 126 10 48 14 88 61 88 104 0 41 -36 96 -75 116 -41 20 -181
24 -220 6z"/>
<path d="M4697 6480 c-64 -56 -67 -122 -9 -182 24 -27 30 -28 118 -28 77 0 95
3 118 21 62 49 74 128 27 181 -29 32 -32 33 -124 36 -94 4 -94 4 -130 -28z"/>
<path d="M6041 6189 c0 -24 5 -53 10 -64 6 -13 7 0 3 40 -8 73 -14 85 -13 24z"/>
<path d="M4483 5815 c-231 -63 -395 -309 -354 -531 27 -146 133 -300 247 -356
115 -58 261 -67 383 -25 110 39 173 86 231 175 71 107 95 184 95 302 0 116
-15 160 -90 265 -55 76 -52 79 20 27 11 -8 -9 13 -45 48 -36 34 -73 66 -83 72
-16 8 -17 7 -5 -11 7 -12 16 -21 19 -21 4 0 10 -8 13 -17 6 -15 5 -16 -11 -1
-31 27 -115 65 -171 77 -71 15 -185 13 -249 -4z m231 -225 c56 -28 110 -87
127 -138 27 -83 -10 -231 -73 -289 -66 -62 -187 -82 -269 -46 -50 22 -117 94
-136 146 -20 55 -16 165 8 215 63 128 212 177 343 112z"/>
<path d="M5131 5396 c-1 -29 2 -37 10 -29 8 8 8 19 1 40 -10 28 -10 28 -11
-11z"/>
<path d="M5262 5350 c0 -19 2 -27 5 -17 2 9 2 25 0 35 -3 9 -5 1 -5 -18z"/>
<path d="M5160 5315 c0 -5 5 -17 10 -25 5 -8 10 -10 10 -5 0 6 -5 17 -10 25
-5 8 -10 11 -10 5z"/>
<path d="M2300 4748 c0 -161 5 -327 10 -368 24 -183 113 -357 264 -517 91 -96
158 -140 276 -179 76 -25 99 -28 215 -28 112 1 142 4 218 27 140 43 220 89
348 198 200 173 386 500 459 809 29 124 27 162 -11 199 -41 42 -56 39 -69 -11
-16 -61 -61 -158 -70 -153 -5 3 -6 -3 -3 -13 3 -12 -2 -18 -16 -19 -14 -1 -21
4 -21 17 0 10 -7 21 -16 24 -26 10 -124 7 -124 -4 0 -5 -18 -10 -40 -10 -22 0
-40 5 -40 10 0 6 -33 10 -80 10 -47 0 -80 4 -80 10 0 6 -9 10 -20 10 -11 0
-20 6 -20 14 0 15 -80 26 -201 26 -42 0 -79 3 -81 8 -9 20 -80 47 -138 53 -68
6 -130 26 -142 45 -4 6 -24 11 -45 12 -21 1 -63 11 -93 22 -59 22 -220 29
-220 10 0 -5 -9 -10 -20 -10 -11 0 -20 5 -20 11 0 6 -10 10 -22 9 -43 -4 -58
0 -58 15 0 14 -56 35 -95 35 -17 0 -17 -2 -5 -10 13 -8 12 -10 -2 -10 -13 0
-18 8 -18 25 0 14 -4 25 -10 25 -6 0 -10 -104 -10 -292z m117 -280 c-3 -8 -6
-5 -6 6 -1 11 2 17 5 13 3 -3 4 -12 1 -19z m97 -205 c9 -18 14 -33 12 -33 -6
0 -36 55 -36 66 0 11 5 3 24 -33z m913 -189 c-3 -3 -12 -4 -19 -1 -8 3 -5 6 6
6 11 1 17 -2 13 -5z m-462 -85 l20 -8 -20 0 c-11 0 -38 7 -60 14 l-40 14 40
-6 c22 -3 49 -9 60 -14z m262 5 c-3 -3 -12 -4 -19 -1 -8 3 -5 6 6 6 11 1 17
-2 13 -5z m-129 -21 c-10 -2 -26 -2 -35 0 -10 3 -2 5 17 5 19 0 27 -2 18 -5z"/>
<path d="M4848 4733 c6 -2 18 -2 25 0 6 3 1 5 -13 5 -14 0 -19 -2 -12 -5z"/>
<path d="M5727 5514 c-16 -9 -27 -18 -24 -21 3 -2 15 1 28 7 33 18 94 6 153
-30 l51 -32 -29 31 c-55 58 -123 75 -179 45z"/>
</g>
</svg>
