<?xml version="1.0" standalone="no"?>
<!DOCTYPE svg PUBLIC "-//W3C//DTD SVG 20010904//EN"
 "http://www.w3.org/TR/2001/REC-SVG-20010904/DTD/svg10.dtd">
<svg version="1.0" xmlns="http://www.w3.org/2000/svg"
 width="1024.000000pt" height="1024.000000pt" viewBox="0 0 1024.000000 1024.000000"
 preserveAspectRatio="xMidYMid meet">

<g transform="translate(0.000000,1024.000000) scale(0.100000,-0.100000)"
fill="#000000" stroke="none">
<path d="M3460 8550 c-210 -12 -268 -26 -461 -110 -154 -67 -257 -141 -397
-282 -115 -117 -169 -189 -228 -301 -78 -150 -119 -293 -144 -496 -6 -54 -10
-754 -10 -1955 -1 -1626 1 -1885 15 -1976 43 -300 171 -549 393 -762 140 -135
283 -218 495 -288 209 -69 38 -63 2172 -67 2140 -4 1979 -9 2192 62 290 97
539 290 691 538 86 140 155 337 184 527 10 68 13 478 13 2020 -1 1823 -2 1941
-19 2035 -43 237 -185 511 -356 684 -119 121 -315 250 -451 297 -79 26 -224
60 -299 69 -74 9 -3644 13 -3790 5z m2097 -698 c255 -122 539 -256 655 -310
86 -40 138 -79 138 -104 0 -12 -245 -131 -435 -211 -44 -19 -118 -53 -165 -77
-197 -99 -445 -196 -464 -182 -6 5 -51 24 -101 42 -126 46 -323 134 -564 251
-113 55 -233 109 -266 120 -95 33 -118 65 -72 106 24 22 282 154 388 198 35
15 153 72 262 126 228 114 325 151 379 145 21 -2 131 -49 245 -104z m-1288
-494 c-1 -35 -2 -38 -8 -18 -7 23 -4 60 5 60 2 0 4 -19 3 -42z m-10 -911 c0
-4 16 -16 34 -27 17 -11 26 -20 20 -20 -20 0 -16 -61 6 -96 13 -22 48 -47 110
-80 50 -26 91 -51 91 -55 0 -4 10 -11 22 -15 12 -3 28 -13 36 -20 7 -8 22 -14
32 -14 23 0 34 -28 18 -49 -10 -13 -10 -14 2 -3 19 16 35 16 21 -1 -8 -11 -5
-16 15 -25 14 -7 30 -12 37 -11 7 0 4 4 -6 8 -14 5 -5 13 43 40 52 27 68 31
101 26 38 -7 49 -21 30 -40 -14 -15 8 -39 49 -54 42 -16 66 -25 103 -40 15 -6
36 -11 45 -11 10 0 35 -18 56 -39 35 -36 44 -40 107 -46 45 -5 69 -11 69 -20
0 -7 19 -14 48 -18 26 -3 61 -11 77 -18 42 -17 66 -16 95 1 35 22 66 36 130
60 30 12 69 27 85 34 17 8 55 24 85 37 30 12 79 38 108 56 29 18 59 33 67 33
7 0 16 4 19 9 3 4 27 16 53 26 54 21 159 83 215 127 54 43 69 105 84 351 6 94
9 107 23 101 9 -3 58 -22 108 -40 51 -18 128 -51 170 -73 43 -21 132 -60 198
-86 152 -60 190 -79 209 -107 20 -28 21 -49 2 -42 -8 3 -46 -11 -85 -31 -39
-19 -93 -44 -120 -55 -67 -26 -120 -51 -311 -142 -278 -135 -339 -160 -366
-154 -17 5 -22 3 -18 -7 3 -9 -44 -36 -143 -84 -325 -157 -452 -215 -677 -306
l-28 -12 4 -252 c2 -170 0 -253 -7 -253 -5 0 -55 21 -110 46 -55 25 -185 81
-289 125 -103 44 -238 104 -300 134 -61 31 -126 58 -143 61 l-33 7 1 -169 c0
-161 7 -245 24 -289 5 -16 5 -17 -4 -5 -6 8 -11 12 -11 8 0 -7 -40 11 -234
101 -55 26 -99 40 -115 38 -14 -2 -20 -2 -13 0 22 8 13 19 -30 38 -401 176
-475 215 -495 256 -10 20 -13 149 -15 499 l-3 472 36 32 c20 17 83 52 140 78
57 26 196 89 309 141 l205 94 6 -111 c4 -61 7 -114 8 -119z m-274 -1437 c-3
-5 -1 -10 4 -10 6 0 11 -9 11 -21 0 -12 8 -23 19 -26 11 -3 22 -14 24 -25 3
-11 10 -17 17 -13 6 4 30 -10 53 -30 64 -55 65 -55 83 -48 10 4 15 2 11 -3 -9
-15 529 -286 573 -289 3 0 32 -17 65 -37 67 -41 463 -208 492 -208 20 0 267
104 438 184 54 26 106 44 114 41 9 -3 12 -3 8 1 -8 8 255 142 343 175 96 36
312 137 415 194 56 31 113 55 129 55 15 0 49 -11 75 -24 25 -14 78 -39 116
-56 68 -30 135 -82 135 -105 0 -7 -39 -29 -87 -50 -49 -21 -209 -97 -358 -168
-148 -71 -319 -149 -380 -174 -60 -25 -135 -60 -165 -77 -30 -18 -116 -58
-190 -90 -74 -32 -169 -76 -210 -98 -41 -22 -146 -71 -234 -109 -132 -57 -161
-67 -179 -58 -11 7 -79 37 -151 69 -184 81 -482 217 -606 277 -58 28 -166 79
-240 114 -74 34 -205 95 -290 136 -85 40 -145 65 -135 54 11 -10 22 -18 25
-18 13 2 50 -16 50 -24 0 -6 4 -8 9 -4 6 3 13 0 18 -8 11 -18 59 -47 78 -47 8
0 14 -3 13 -7 -4 -22 18 -44 53 -53 41 -11 53 -30 19 -30 -13 0 -20 -7 -20
-20 0 -15 -7 -20 -25 -20 -18 0 -25 -5 -25 -20 0 -17 -7 -20 -40 -20 -33 0
-40 -3 -40 -20 0 -11 5 -20 10 -20 6 0 10 -9 10 -20 0 -19 7 -20 130 -20 123
0 130 1 130 20 0 18 7 20 60 20 55 0 60 2 61 23 1 21 1 21 8 -3 6 -23 7 -24
15 -5 6 17 9 18 16 4 10 -17 26 -469 17 -469 -3 0 -48 19 -99 43 -51 24 -117
54 -145 67 -29 13 -53 27 -53 30 0 4 -6 7 -14 7 -7 0 -49 14 -92 31 -131 52
-139 55 -151 58 -6 1 -58 23 -115 48 -57 26 -131 52 -164 58 l-62 12 -5 81
c-11 151 -9 455 3 455 6 0 9 4 5 9 -3 5 -1 12 5 16 5 3 10 0 10 -7 0 -15 56
-52 80 -54 30 -2 70 -16 70 -25 0 -5 5 -9 11 -9 24 0 -7 22 -91 66 -136 70
-128 89 77 186 107 50 255 117 261 118 2 0 0 -4 -3 -10z m1345 -240 c0 -198
-2 -230 -15 -230 -8 0 -15 5 -15 11 0 5 -3 8 -7 6 -5 -3 -14 1 -21 9 -7 8 -8
14 -3 14 5 0 8 11 5 25 -4 26 10 35 19 13 3 -7 6 -4 7 7 l1 20 9 -20 c8 -18 9
-17 9 8 1 18 -3 26 -10 21 -8 -5 -8 -1 0 14 7 13 11 82 11 176 0 86 2 156 5
156 3 0 5 -103 5 -230z m-475 0 c3 -5 15 -10 26 -10 11 0 17 -4 14 -10 -3 -5
-2 -10 4 -10 5 0 13 5 16 10 3 6 10 10 16 10 13 0 11 -37 -3 -46 -7 -5 -8 -3
-4 5 5 8 3 11 -5 10 -14 -3 -139 40 -139 47 0 9 69 3 75 -6z m-1257 -978 c23
-48 11 -48 -14 1 -11 20 -18 63 -20 122 l-3 90 8 -85 c5 -52 16 -102 29 -128z"/>
<path d="M4450 5870 c0 -28 12 -37 44 -31 4 1 14 -3 21 -9 7 -6 30 -10 52 -9
21 1 47 -1 58 -5 11 -3 -20 14 -70 38 -49 25 -93 45 -97 45 -5 1 -8 -12 -8
-29z"/>
<path d="M4697 5779 c7 -7 15 -10 18 -7 3 3 -2 9 -12 12 -14 6 -15 5 -6 -5z"/>
<path d="M4750 5756 c0 -2 7 -7 16 -10 8 -3 12 -2 9 4 -6 10 -25 14 -25 6z"/>
<path d="M4367 5409 c7 -7 15 -10 18 -7 3 3 -2 9 -12 12 -14 6 -15 5 -6 -5z"/>
<path d="M4400 5400 c0 -5 5 -10 11 -10 5 0 7 5 4 10 -3 6 -8 10 -11 10 -2 0
-4 -4 -4 -10z"/>
<path d="M6139 4387 c14 -18 51 -42 51 -33 0 3 -15 15 -32 27 -24 17 -29 18
-19 6z"/>
<path d="M4411 4254 c0 -11 3 -14 6 -6 3 7 2 16 -1 19 -3 4 -6 -2 -5 -13z"/>
</g>
</svg>
